<svg width="16" height="20" viewBox="0 0 16 20" fill="none" xmlns="http://www.w3.org/2000/svg">
<path fill-rule="evenodd" clip-rule="evenodd" d="M11.654 0.895996L12.4674 0.997293C14.3447 1.2311 15.7539 2.82669 15.7539 4.71854V15.208C15.7539 17.0449 14.3856 18.5941 12.5628 18.8211C11.6254 18.9379 10.6846 19.0185 9.74251 19.0629C9.7501 18.9968 9.754 18.9295 9.754 18.8613V17.5605C10.6303 17.5171 11.5054 17.4411 12.3775 17.3325C13.4493 17.199 14.2539 16.288 14.2539 15.2079V4.71844C14.2539 3.58333 13.4084 2.62597 12.282 2.48569L11.7539 2.41992H4.25391L3.72583 2.48569C2.59942 2.62597 1.75391 3.58332 1.75391 4.71844V15.2079C1.75391 16.288 2.55849 17.199 3.63036 17.3325C4.50248 17.4411 5.37763 17.5171 6.254 17.5605V18.8613C6.254 18.9295 6.2579 18.9968 6.26549 19.0629C5.32334 19.0185 4.38248 18.9379 3.44498 18.8211C1.62216 18.5941 0.253906 17.0449 0.253906 15.208V4.71854C0.253906 2.82668 1.6631 1.2311 3.54045 0.997293L4.35381 0.895996H11.654ZM11.7539 6.35693C11.7539 5.94272 11.4181 5.60693 11.0039 5.60693H5.00391C4.58969 5.60693 4.25391 5.94272 4.25391 6.35693C4.25391 6.77115 4.58969 7.10693 5.00391 7.10693H11.0039C11.4181 7.10693 11.7539 6.77115 11.7539 6.35693ZM10.7539 9.35693C10.7539 8.94272 10.4181 8.60693 10.0039 8.60693H5.00391C4.58969 8.60693 4.25391 8.94272 4.25391 9.35693C4.25391 9.77115 4.58969 10.1069 5.00391 10.1069H10.0039C10.4181 10.1069 10.7539 9.77115 10.7539 9.35693ZM11.0896 15.3298C10.8308 15.6533 10.3589 15.7057 10.0354 15.447L8.75396 14.4218V18.8613C8.75396 19.2755 8.41817 19.6113 8.00396 19.6113C7.58975 19.6113 7.25396 19.2755 7.25396 18.8613V14.4218L5.97246 15.447C5.64901 15.7057 5.17704 15.6533 4.91828 15.3298C4.65952 15.0064 4.71197 14.5344 5.03541 14.2757L7.53275 12.2778C7.66 12.1749 7.82159 12.1128 7.99764 12.1114L8.00396 12.1113L8.00639 12.1113C8.18549 12.1119 8.34982 12.1752 8.47851 12.2805L10.9725 14.2757C11.2959 14.5344 11.3483 15.0064 11.0896 15.3298Z" fill="black"/>
</svg>
