<svg width="16" height="3" viewBox="0 0 16 3" fill="none" xmlns="http://www.w3.org/2000/svg">
<path d="M1 2.96094H15C15.6 2.96094 16 2.56094 16 1.96094C16 1.36094 15.6 0.960938 15 0.960938H1C0.4 0.960938 0 1.36094 0 1.96094C0 2.56094 0.4 2.96094 1 2.96094Z" fill="#020914"/>
<path d="M1 2.96094H15C15.6 2.96094 16 2.56094 16 1.96094C16 1.36094 15.6 0.960938 15 0.960938H1C0.4 0.960938 0 1.36094 0 1.96094C0 2.56094 0.4 2.96094 1 2.96094Z" fill="black" fill-opacity="0.2"/>
<path d="M1 2.96094H15C15.6 2.96094 16 2.56094 16 1.96094C16 1.36094 15.6 0.960938 15 0.960938H1C0.4 0.960938 0 1.36094 0 1.96094C0 2.56094 0.4 2.96094 1 2.96094Z" fill="black" fill-opacity="0.2"/>
</svg>
