<svg width="32" height="32" viewBox="0 0 32 32" fill="none" xmlns="http://www.w3.org/2000/svg">
<rect width="32" height="32" fill="white"/>
<path fill-rule="evenodd" clip-rule="evenodd" d="M7.36771 7.81818C6.43775 7.81818 5.68386 8.63221 5.68386 9.63636V20.7273C5.68386 21.506 5.68451 22.0354 5.71547 22.4445C5.74563 22.8431 5.8003 23.0469 5.86739 23.1891C6.02882 23.5312 6.28643 23.8094 6.60326 23.9836C6.73494 24.0561 6.9237 24.1151 7.29282 24.1476C7.67176 24.1811 9.5073 24.1818 10.2285 24.1818H15.6168C16.338 24.1818 16.8283 24.1811 17.2072 24.1476C17.5763 24.1151 17.7651 24.0561 17.8968 23.9836C18.2136 23.8094 18.4712 23.5312 18.6326 23.1891C18.6997 23.0469 18.7543 22.8431 18.7845 22.4445C18.8155 22.0354 18.8161 21.506 18.8161 20.7273V16.9091C18.8161 14.9008 17.3083 13.2727 15.4484 13.2727H14.817C13.3058 13.2727 12.0807 11.9499 12.0807 10.3182C12.0807 8.93747 11.0441 7.81818 9.76542 7.81818H7.36771ZM11.2388 6C16.3536 6 20.5 10.4772 20.5 16V20.7648C20.5 21.4966 20.5 22.1005 20.4628 22.5925C20.4241 23.1035 20.3411 23.5733 20.1329 24.0145C19.81 24.6987 19.2949 25.255 18.6612 25.6036C18.2526 25.8285 17.8175 25.9181 17.3443 25.9598C16.8886 26 16.3293 26 15.6516 26H10.1937C9.51597 26 7.61133 26 7.15569 25.9598C6.68245 25.9181 6.24742 25.8285 5.83881 25.6036C5.20513 25.255 4.68994 24.6987 4.36706 24.0145C4.15886 23.5733 4.07587 23.1035 4.03721 22.5925C3.99998 22.1005 3.99999 21.4966 4 20.7648V9.63636C4 7.62805 5.50778 6 7.36771 6H11.2388ZM17.9299 12.1569C16.9527 10.1773 15.244 8.68249 13.1934 8.09299C13.556 8.74285 13.7646 9.50421 13.7646 10.3182C13.7646 10.9458 14.2357 11.4545 14.817 11.4545H15.4484C16.3503 11.4545 17.197 11.7098 17.9299 12.1569Z" fill="#020914"/>
<path fill-rule="evenodd" clip-rule="evenodd" d="M7.36771 7.81818C6.43775 7.81818 5.68386 8.63221 5.68386 9.63636V20.7273C5.68386 21.506 5.68451 22.0354 5.71547 22.4445C5.74563 22.8431 5.8003 23.0469 5.86739 23.1891C6.02882 23.5312 6.28643 23.8094 6.60326 23.9836C6.73494 24.0561 6.9237 24.1151 7.29282 24.1476C7.67176 24.1811 9.5073 24.1818 10.2285 24.1818H15.6168C16.338 24.1818 16.8283 24.1811 17.2072 24.1476C17.5763 24.1151 17.7651 24.0561 17.8968 23.9836C18.2136 23.8094 18.4712 23.5312 18.6326 23.1891C18.6997 23.0469 18.7543 22.8431 18.7845 22.4445C18.8155 22.0354 18.8161 21.506 18.8161 20.7273V16.9091C18.8161 14.9008 17.3083 13.2727 15.4484 13.2727H14.817C13.3058 13.2727 12.0807 11.9499 12.0807 10.3182C12.0807 8.93747 11.0441 7.81818 9.76542 7.81818H7.36771ZM11.2388 6C16.3536 6 20.5 10.4772 20.5 16V20.7648C20.5 21.4966 20.5 22.1005 20.4628 22.5925C20.4241 23.1035 20.3411 23.5733 20.1329 24.0145C19.81 24.6987 19.2949 25.255 18.6612 25.6036C18.2526 25.8285 17.8175 25.9181 17.3443 25.9598C16.8886 26 16.3293 26 15.6516 26H10.1937C9.51597 26 7.61133 26 7.15569 25.9598C6.68245 25.9181 6.24742 25.8285 5.83881 25.6036C5.20513 25.255 4.68994 24.6987 4.36706 24.0145C4.15886 23.5733 4.07587 23.1035 4.03721 22.5925C3.99998 22.1005 3.99999 21.4966 4 20.7648V9.63636C4 7.62805 5.50778 6 7.36771 6H11.2388ZM17.9299 12.1569C16.9527 10.1773 15.244 8.68249 13.1934 8.09299C13.556 8.74285 13.7646 9.50421 13.7646 10.3182C13.7646 10.9458 14.2357 11.4545 14.817 11.4545H15.4484C16.3503 11.4545 17.197 11.7098 17.9299 12.1569Z" fill="black" fill-opacity="0.2"/>
<path fill-rule="evenodd" clip-rule="evenodd" d="M7.36771 7.81818C6.43775 7.81818 5.68386 8.63221 5.68386 9.63636V20.7273C5.68386 21.506 5.68451 22.0354 5.71547 22.4445C5.74563 22.8431 5.8003 23.0469 5.86739 23.1891C6.02882 23.5312 6.28643 23.8094 6.60326 23.9836C6.73494 24.0561 6.9237 24.1151 7.29282 24.1476C7.67176 24.1811 9.5073 24.1818 10.2285 24.1818H15.6168C16.338 24.1818 16.8283 24.1811 17.2072 24.1476C17.5763 24.1151 17.7651 24.0561 17.8968 23.9836C18.2136 23.8094 18.4712 23.5312 18.6326 23.1891C18.6997 23.0469 18.7543 22.8431 18.7845 22.4445C18.8155 22.0354 18.8161 21.506 18.8161 20.7273V16.9091C18.8161 14.9008 17.3083 13.2727 15.4484 13.2727H14.817C13.3058 13.2727 12.0807 11.9499 12.0807 10.3182C12.0807 8.93747 11.0441 7.81818 9.76542 7.81818H7.36771ZM11.2388 6C16.3536 6 20.5 10.4772 20.5 16V20.7648C20.5 21.4966 20.5 22.1005 20.4628 22.5925C20.4241 23.1035 20.3411 23.5733 20.1329 24.0145C19.81 24.6987 19.2949 25.255 18.6612 25.6036C18.2526 25.8285 17.8175 25.9181 17.3443 25.9598C16.8886 26 16.3293 26 15.6516 26H10.1937C9.51597 26 7.61133 26 7.15569 25.9598C6.68245 25.9181 6.24742 25.8285 5.83881 25.6036C5.20513 25.255 4.68994 24.6987 4.36706 24.0145C4.15886 23.5733 4.07587 23.1035 4.03721 22.5925C3.99998 22.1005 3.99999 21.4966 4 20.7648V9.63636C4 7.62805 5.50778 6 7.36771 6H11.2388ZM17.9299 12.1569C16.9527 10.1773 15.244 8.68249 13.1934 8.09299C13.556 8.74285 13.7646 9.50421 13.7646 10.3182C13.7646 10.9458 14.2357 11.4545 14.817 11.4545H15.4484C16.3503 11.4545 17.197 11.7098 17.9299 12.1569Z" fill="black" fill-opacity="0.2"/>
</svg>
